<mxfile host="app.diagrams.net" modified="2024-05-12T13:35:58.623Z" agent="Mozilla/5.0 (Windows NT 10.0; Win64; x64) AppleWebKit/537.36 (KHTML, like Gecko) Chrome/124.0.0.0 Safari/537.36" etag="BUziTW-RALooxUZC8fCp" version="24.4.0" type="github">
  <diagram name="Page-1" id="jZYVhN4eGBarBtZK3CFB">
    <mxGraphModel dx="1195" dy="393" grid="1" gridSize="10" guides="1" tooltips="1" connect="1" arrows="1" fold="1" page="1" pageScale="1" pageWidth="850" pageHeight="1100" math="0" shadow="0">
      <root>
        <mxCell id="0" />
        <mxCell id="1" parent="0" />
        <mxCell id="0uiwlLxnWgc8HShe7Uq4-20" style="edgeStyle=orthogonalEdgeStyle;rounded=0;orthogonalLoop=1;jettySize=auto;html=1;exitX=0.5;exitY=0.5;exitDx=0;exitDy=0;exitPerimeter=0;entryX=0;entryY=0.5;entryDx=0;entryDy=0;curved=1;" edge="1" parent="1" source="0uiwlLxnWgc8HShe7Uq4-1" target="0uiwlLxnWgc8HShe7Uq4-18">
          <mxGeometry relative="1" as="geometry" />
        </mxCell>
        <mxCell id="0uiwlLxnWgc8HShe7Uq4-22" value="&lt;font style=&quot;font-size: 13px;&quot;&gt;1&lt;br&gt;Make rule&lt;br&gt;change request&lt;/font&gt;" style="edgeLabel;html=1;align=center;verticalAlign=middle;resizable=0;points=[];" vertex="1" connectable="0" parent="0uiwlLxnWgc8HShe7Uq4-20">
          <mxGeometry x="-0.2752" y="1" relative="1" as="geometry">
            <mxPoint as="offset" />
          </mxGeometry>
        </mxCell>
        <mxCell id="0uiwlLxnWgc8HShe7Uq4-1" value="Actor" style="shape=umlActor;verticalLabelPosition=bottom;verticalAlign=top;html=1;outlineConnect=0;" vertex="1" parent="1">
          <mxGeometry x="60" y="10" width="30" height="60" as="geometry" />
        </mxCell>
        <mxCell id="0uiwlLxnWgc8HShe7Uq4-28" style="edgeStyle=orthogonalEdgeStyle;rounded=0;orthogonalLoop=1;jettySize=auto;html=1;exitX=0.5;exitY=1;exitDx=0;exitDy=0;" edge="1" parent="1" source="0uiwlLxnWgc8HShe7Uq4-18" target="0uiwlLxnWgc8HShe7Uq4-27">
          <mxGeometry relative="1" as="geometry" />
        </mxCell>
        <mxCell id="0uiwlLxnWgc8HShe7Uq4-40" value="&lt;font style=&quot;font-size: 16px;&quot;&gt;3&lt;/font&gt;&lt;br&gt;&lt;font style=&quot;font-size: 13px;&quot;&gt;Produce changing message&lt;/font&gt;" style="edgeLabel;html=1;align=center;verticalAlign=middle;resizable=0;points=[];" vertex="1" connectable="0" parent="0uiwlLxnWgc8HShe7Uq4-28">
          <mxGeometry x="-0.0651" y="-2" relative="1" as="geometry">
            <mxPoint as="offset" />
          </mxGeometry>
        </mxCell>
        <mxCell id="0uiwlLxnWgc8HShe7Uq4-18" value="Rule Service" style="swimlane;whiteSpace=wrap;html=1;" vertex="1" parent="1">
          <mxGeometry x="170" y="140" width="120" height="110" as="geometry" />
        </mxCell>
        <mxCell id="0uiwlLxnWgc8HShe7Uq4-19" value="Rule DB" style="shape=cylinder3;whiteSpace=wrap;html=1;boundedLbl=1;backgroundOutline=1;size=15;" vertex="1" parent="1">
          <mxGeometry x="380" y="10" width="60" height="80" as="geometry" />
        </mxCell>
        <mxCell id="0uiwlLxnWgc8HShe7Uq4-21" style="edgeStyle=orthogonalEdgeStyle;rounded=0;orthogonalLoop=1;jettySize=auto;html=1;entryX=0;entryY=0;entryDx=0;entryDy=52.5;entryPerimeter=0;exitX=1;exitY=0.5;exitDx=0;exitDy=0;" edge="1" parent="1" source="0uiwlLxnWgc8HShe7Uq4-18" target="0uiwlLxnWgc8HShe7Uq4-19">
          <mxGeometry relative="1" as="geometry">
            <mxPoint x="410" y="148" as="sourcePoint" />
          </mxGeometry>
        </mxCell>
        <mxCell id="0uiwlLxnWgc8HShe7Uq4-23" value="&lt;font style=&quot;font-size: 16px;&quot;&gt;2&lt;/font&gt;" style="edgeLabel;html=1;align=center;verticalAlign=middle;resizable=0;points=[];" vertex="1" connectable="0" parent="0uiwlLxnWgc8HShe7Uq4-21">
          <mxGeometry x="0.3344" y="2" relative="1" as="geometry">
            <mxPoint as="offset" />
          </mxGeometry>
        </mxCell>
        <mxCell id="0uiwlLxnWgc8HShe7Uq4-27" value="Kafka&lt;br&gt;Rule changing topic" style="ellipse;shape=cloud;whiteSpace=wrap;html=1;" vertex="1" parent="1">
          <mxGeometry x="125" y="340" width="210" height="80" as="geometry" />
        </mxCell>
        <mxCell id="0uiwlLxnWgc8HShe7Uq4-34" value="Other Service-Pod 1" style="swimlane;whiteSpace=wrap;html=1;startSize=23;" vertex="1" parent="1">
          <mxGeometry x="500" y="80" width="140" height="200" as="geometry" />
        </mxCell>
        <mxCell id="0uiwlLxnWgc8HShe7Uq4-46" value="- localCacheDataMap" style="text;html=1;align=center;verticalAlign=middle;resizable=0;points=[];autosize=1;strokeColor=none;fillColor=none;" vertex="1" parent="0uiwlLxnWgc8HShe7Uq4-34">
          <mxGeometry y="28" width="140" height="30" as="geometry" />
        </mxCell>
        <mxCell id="0uiwlLxnWgc8HShe7Uq4-55" value="" style="edgeStyle=orthogonalEdgeStyle;rounded=0;orthogonalLoop=1;jettySize=auto;html=1;dashed=1;dashPattern=8 8;strokeColor=#3333FF;" edge="1" parent="0uiwlLxnWgc8HShe7Uq4-34" source="0uiwlLxnWgc8HShe7Uq4-48" target="0uiwlLxnWgc8HShe7Uq4-46">
          <mxGeometry relative="1" as="geometry" />
        </mxCell>
        <mxCell id="0uiwlLxnWgc8HShe7Uq4-48" value="rule-util-lib" style="shape=folder;fontStyle=1;spacingTop=10;tabWidth=40;tabHeight=14;tabPosition=left;html=1;whiteSpace=wrap;" vertex="1" parent="0uiwlLxnWgc8HShe7Uq4-34">
          <mxGeometry x="35" y="120" width="70" height="50" as="geometry" />
        </mxCell>
        <mxCell id="0uiwlLxnWgc8HShe7Uq4-41" style="edgeStyle=orthogonalEdgeStyle;rounded=0;orthogonalLoop=1;jettySize=auto;html=1;entryX=0.875;entryY=0.5;entryDx=0;entryDy=0;entryPerimeter=0;" edge="1" parent="1" source="0uiwlLxnWgc8HShe7Uq4-34" target="0uiwlLxnWgc8HShe7Uq4-27">
          <mxGeometry relative="1" as="geometry">
            <Array as="points">
              <mxPoint x="560" y="380" />
            </Array>
          </mxGeometry>
        </mxCell>
        <mxCell id="0uiwlLxnWgc8HShe7Uq4-42" value="&lt;font style=&quot;&quot;&gt;&lt;span style=&quot;font-size: 16px;&quot;&gt;4&lt;/span&gt;&lt;br&gt;&lt;font style=&quot;font-size: 13px;&quot;&gt;Listen event and consume&lt;/font&gt;&lt;/font&gt;" style="edgeLabel;html=1;align=center;verticalAlign=middle;resizable=0;points=[];" vertex="1" connectable="0" parent="0uiwlLxnWgc8HShe7Uq4-41">
          <mxGeometry x="0.1669" y="-1" relative="1" as="geometry">
            <mxPoint as="offset" />
          </mxGeometry>
        </mxCell>
        <mxCell id="0uiwlLxnWgc8HShe7Uq4-43" value="&lt;font color=&quot;#ff0000&quot;&gt;@MessageConsumer&lt;/font&gt;(&lt;br&gt;topics = {... groupId = &quot;service-name-&quot;+&lt;font color=&quot;#ff0000&quot;&gt;uuid()&lt;/font&gt;)" style="text;html=1;align=center;verticalAlign=middle;resizable=0;points=[];autosize=1;strokeColor=none;fillColor=none;" vertex="1" parent="1">
          <mxGeometry x="510" y="320" width="270" height="40" as="geometry" />
        </mxCell>
        <mxCell id="0uiwlLxnWgc8HShe7Uq4-44" value="Other Service-Pod N" style="swimlane;whiteSpace=wrap;html=1;startSize=23;" vertex="1" parent="1">
          <mxGeometry x="670" y="80" width="140" height="200" as="geometry" />
        </mxCell>
        <mxCell id="0uiwlLxnWgc8HShe7Uq4-47" value="- localCacheDataMap" style="text;html=1;align=center;verticalAlign=middle;resizable=0;points=[];autosize=1;strokeColor=none;fillColor=none;" vertex="1" parent="0uiwlLxnWgc8HShe7Uq4-44">
          <mxGeometry y="28" width="140" height="30" as="geometry" />
        </mxCell>
        <mxCell id="0uiwlLxnWgc8HShe7Uq4-56" value="rule-util-lib" style="shape=folder;fontStyle=1;spacingTop=10;tabWidth=40;tabHeight=14;tabPosition=left;html=1;whiteSpace=wrap;" vertex="1" parent="0uiwlLxnWgc8HShe7Uq4-44">
          <mxGeometry x="40" y="120" width="70" height="50" as="geometry" />
        </mxCell>
        <mxCell id="0uiwlLxnWgc8HShe7Uq4-58" style="edgeStyle=orthogonalEdgeStyle;rounded=0;orthogonalLoop=1;jettySize=auto;html=1;entryX=0.535;entryY=1.073;entryDx=0;entryDy=0;entryPerimeter=0;dashed=1;dashPattern=8 8;strokeColor=#3333FF;" edge="1" parent="0uiwlLxnWgc8HShe7Uq4-44" source="0uiwlLxnWgc8HShe7Uq4-56" target="0uiwlLxnWgc8HShe7Uq4-47">
          <mxGeometry relative="1" as="geometry" />
        </mxCell>
        <mxCell id="0uiwlLxnWgc8HShe7Uq4-45" style="edgeStyle=orthogonalEdgeStyle;rounded=0;orthogonalLoop=1;jettySize=auto;html=1;entryX=0.875;entryY=0.5;entryDx=0;entryDy=0;entryPerimeter=0;" edge="1" parent="1" source="0uiwlLxnWgc8HShe7Uq4-44" target="0uiwlLxnWgc8HShe7Uq4-27">
          <mxGeometry relative="1" as="geometry">
            <Array as="points">
              <mxPoint x="740" y="380" />
            </Array>
          </mxGeometry>
        </mxCell>
        <mxCell id="0uiwlLxnWgc8HShe7Uq4-54" style="edgeStyle=orthogonalEdgeStyle;rounded=0;orthogonalLoop=1;jettySize=auto;html=1;entryX=0.377;entryY=0.017;entryDx=0;entryDy=0;entryPerimeter=0;dashed=1;dashPattern=8 8;strokeColor=#3333FF;" edge="1" parent="1" source="0uiwlLxnWgc8HShe7Uq4-48" target="0uiwlLxnWgc8HShe7Uq4-43">
          <mxGeometry relative="1" as="geometry">
            <Array as="points">
              <mxPoint x="612" y="225" />
            </Array>
          </mxGeometry>
        </mxCell>
        <mxCell id="0uiwlLxnWgc8HShe7Uq4-57" style="edgeStyle=orthogonalEdgeStyle;rounded=0;orthogonalLoop=1;jettySize=auto;html=1;entryX=0.685;entryY=-0.031;entryDx=0;entryDy=0;entryPerimeter=0;dashed=1;dashPattern=8 8;strokeColor=#3333FF;" edge="1" parent="1" source="0uiwlLxnWgc8HShe7Uq4-56" target="0uiwlLxnWgc8HShe7Uq4-43">
          <mxGeometry relative="1" as="geometry">
            <Array as="points">
              <mxPoint x="695" y="225" />
            </Array>
          </mxGeometry>
        </mxCell>
      </root>
    </mxGraphModel>
  </diagram>
</mxfile>
